<svg width="75.791" height="88.855" version="1.1" viewBox="0 0 20.053 23.51" xmlns="http://www.w3.org/2000/svg">
  <g transform="translate(0 -273.49)">
    <g transform="matrix(.96224 0 0 .96224 -98.916 250.2)">
      <path d="m102.8 33.141 16.078-8.9315-8.1063 8.8346" fill="#ee2b22"/>
      <path d="m110.77 33.044 8.1063-8.8346-4.091 8.7857" fill="#f36118"/>
      <path d="m102.8 33.141 7.9715-0.09695-7.3895 8.0757z" fill="#fab60a"/>
      <path d="m103.38 41.12 7.3895-8.0757 4.0152-0.04883-2.9178 6.5753z" fill="#ffec00"/>
      <path d="m111.87 39.57 2.9178-6.5753 5.132-0.06242-4.7029 6.0267z" fill="#b3da18"/>
      <path d="m115.21 38.959 4.7029-6.0267c1.2726 1.4689 2.4868 2.9879 3.7214 4.4889z" fill="#2db342"/>
      <path d="m123.64 37.421-8.4242 1.5378-7.3589 9.682z" fill="#3182ce"/>
      <path d="m115.21 38.959-3.347 0.61099-4.012 9.071z" fill="#63b3ed"/>
      <path d="m102.8 33.141 16.078-8.9315-8.1063 8.8346" fill="#ee2b22"/>
      <path d="m110.77 33.044 8.1063-8.8346-4.091 8.7857" fill="#f36118"/>
      <path d="m102.8 33.141 7.9715-0.09695-7.3895 8.0757z" fill="#fab60a"/>
      <path d="m103.38 41.12 7.3895-8.0757 4.0152-0.04883-2.9178 6.5753z" fill="#ffec00"/>
      <path d="m111.87 39.57 2.9178-6.5753 5.132-0.06242-4.7029 6.0267z" fill="#b3da18"/>
      <path d="m115.21 38.959 4.7029-6.0267c1.2726 1.4689 2.4868 2.9879 3.7214 4.4889z" fill="#2db342"/>
      <path d="m123.64 37.421-8.4242 1.5378-7.3589 9.682z" fill="#3182ce"/>
      <path d="m115.21 38.959-3.347 0.61099-4.012 9.071z" fill="#63b3ed"/>
    </g>
  </g>
</svg>
