<?xml version="1.0" standalone="no"?>
<!DOCTYPE svg PUBLIC "-//W3C//DTD SVG 20010904//EN"
 "http://www.w3.org/TR/2001/REC-SVG-20010904/DTD/svg10.dtd">
<svg version="1.0" xmlns="http://www.w3.org/2000/svg"
 width="281.000000pt" height="281.000000pt" viewBox="0 0 281.000000 281.000000"
 preserveAspectRatio="xMidYMid meet">
<metadata>
Created by potrace 1.14, written by Peter Selinger 2001-2017
</metadata>
<g transform="translate(0.000000,281.000000) scale(0.100000,-0.100000)"
fill="#000000" stroke="none">
<path d="M1840 2706 c-102 -56 -210 -116 -240 -133 -57 -32 -653 -363 -751
-417 -31 -17 -194 -107 -363 -201 l-307 -170 6 -105 c4 -58 8 -116 10 -130 2
-14 6 -72 10 -130 3 -58 8 -125 10 -150 5 -46 10 -116 20 -280 9 -138 2 -129
88 -113 39 7 86 16 102 19 17 3 201 36 409 74 209 38 381 68 382 67 1 -1 -25
-63 -58 -137 -33 -74 -127 -288 -210 -475 -200 -452 -190 -427 -174 -418 7 4
105 73 217 153 112 80 379 270 594 422 214 153 399 284 410 292 11 8 147 105
303 216 l282 201 -91 112 c-50 62 -147 178 -215 259 l-124 148 -294 -5 -295
-5 116 247 c63 137 137 295 164 352 27 57 49 105 49 106 0 2 27 61 61 132 59
124 81 173 76 173 -1 -1 -85 -47 -187 -104z"/>
</g>
</svg>
